<svg xmlns="http://www.w3.org/2000/svg" viewBox="0 0 566 566"><defs><style>.cls-1{fill:#020101;}.cls-2{fill:#720203;}.cls-3{fill:#d36262;}.cls-4{fill:#fbfafa;}.cls-5{fill:#a23130;}.cls-6{fill:#7c7b7a;}</style></defs><title>stilte_1</title><g id="Layer_2" data-name="Layer 2"><g id="Layer_1-2" data-name="Layer 1"><path class="cls-1" d="M566,566H0V0H566ZM363.71,277.88l6-10.43h-10.6v6.43l-9-6.35c3-3.19,4.07-4.37,5.19-5.53L382,234.38l1.06-.08c2.14,24,30,39.21,50.63,30.74.87-12,.5-10.32,13.11-12.79,5-1,8.3-3,10.39-7.87,10-23.17-1.57-46.64-27.13-54.61.87-1.58,1.44-3.46,2.67-4.68,8.53-8.5,17.28-16.79,25.82-25.29q31.56-31.38,63-62.87c8.63-8.59,17.66-16.81,25.92-25.75,5.13-5.55,11.72-10.08,10.79-19.93C557,38.54,558,25.63,557.86,12.8a52.25,52.25,0,0,0-1-6.8c-21.79,0-42.76,0-63.72,0A5.31,5.31,0,0,0,490,7.14c-4.73,3.88-9.59,7.65-14,11.91C460,34.67,444.29,50.62,428.14,66.14,413,80.72,397.35,94.83,382.07,109.3c-7.18,6.8-14,14-21,21q-25.76,25.88-51.45,51.81c-7.62,7.73-15,15.7-22.6,23.66a34.31,34.31,0,0,1-2.85-2.51Q266.56,183.57,249,163.88c-6.27-7-12.41-14.21-18.61-21.32.08-3.95,1.39-8.41,0-11.77-6-14.71-20.07-18.42-33.38-22.93l.1.17-1-1L193,105.52a23.57,23.57,0,0,0-2.38-3.67q-20.41-21.64-40.95-43.21Q127.84,35.74,105.87,13c-2.73-2.83-6.09-7.14-9.21-7.18-28.13-.38-56.28,0-84.43.26A37.06,37.06,0,0,0,8,6.62c0,12.46-.22,24.6.15,36.73a14.61,14.61,0,0,0,3.38,8.81C24,65.62,36.86,78.72,49.59,92q21.68,22.56,43.3,45.17c2,9.93,12,20.42,19.59,20.56l5.61,4.19c1.14,2.11,1.92,4.53,3.47,6.26,3.72,4.12,7.86,7.88,11.74,11.87q16.06,16.54,32.06,33.17c-6.55,17.06-3.8,32.08,9.74,44.82,10.43,9.81,30.68,13.83,41.48,8.12l3.29.1v11.7L216,278,134,264.2c-21.2,30-29.95,50.49-27.15,63l45.51,9.33c1.45-7,2.72-13.07,4-19.49l-37.8-8.12c5-5.54,9.93-.79,13.93-2.17,13.28-20.58,13.28-20.58,16.63-19.52L137.1,308.11l24,6.62c-1.6,7.91-2.85,14-4.09,20.13l-.74,3.06-2.41,3.83-1,.21-1.2.2H61.07v87.9l-.26,1.9C44.72,448,28.52,464,12.66,480.29A16.34,16.34,0,0,0,8.3,490c-.53,12-.25,24-.26,36,0,9.46,0,18.92,0,29a57.18,57.18,0,0,0,6.64.83c16,.09,32,.23,48,0a12.5,12.5,0,0,0,7.66-3.31Q87,536.42,103.17,519.81c21-21.66,41.83-43.5,62.73-65.26l1.27-.55h25.56V430.63c.13-1.56.25-3.13.38-4.69l3.17-.92c.5,6.85,1,13.71,1.52,20.74h12.95V408.28c5.75-5.77,11.46-11.6,17.32-17.27.77-.74,2.28-.71,3.45-1v66.37h14.36V374l.39-3.86c2.93-2.54,6.12-4.83,8.75-7.66,6.24-6.73,12.29-13.65,18.28-20.61,2.82-3.27,5.33-6.79,9.6-12.28,1.74,3,2.52,4.91,3.78,6.42,7.5,9,15,17.93,22.7,26.77,5.05,5.81,10.34,11.42,15.52,17.12v77.94h13.83V393.9l.39-.11L358.86,414v34.23h10.42c.25-.43.39-.57.4-.71q.24-10.68.45-21.37l3.51,2.85c.14.69.27,1.38.41,2.07v26.86H400.8c4,4.09,8,8.19,12.06,12.25,9.12,9.17,18.37,18.21,27.38,27.5,17.11,17.64,33.87,35.62,51.31,52.93,3.1,3.08,8.69,4.91,13.22,5.08,15.8.59,31.65.22,47.47.19,1.77,0,3.53-.19,5.5-.3V480.4c-17.57-18.2-35.5-36.78-53.45-55.36-.11-.38-.23-.76-.35-1.14.08-23.61.21-47.22.16-70.84,0-2.34-1.05-4.69-1.68-7.27H429.61L428,345.5l-4.12-4.23h23.37c-5.15-15.09-10.08-29.52-15-43.95l1.73-1.06,6.9,10.58c-2-12.76-3.82-24.09-5.51-34.72H370.45l-3,7.95-1.47,2.1-2-.25ZM437.86,258c4.59,28,9.11,55.58,13.7,83.55l19.4-3.12c-4.58-28-9.1-55.75-13.66-83.73ZM104,262.61V309.2c4.81-9.21,10.39-18.94,15-29.13,2.32-5.15,2.84-11.11,4.35-17.46Zm22.83,75.28.49-1.7L104,329.75v8.14Z"/><path class="cls-2" d="M324.9,379.86c-5.18-5.69-10.47-11.3-15.52-17.11-7.67-8.84-15.2-17.79-22.7-26.77-1.26-1.51-2-3.43-3.78-6.42-4.27,5.49-6.78,9-9.6,12.28-6,7-12,13.88-18.28,20.61-2.63,2.83-5.82,5.12-8.75,7.66,0-8.75,0-17.5,0-27.13H229.92c-2.53,9.35-9.47,6.08-14.39,5.63-20.6-1.89-41.12-4.51-61.67-6.86l2.41-3.83H167l-2.07-5.33a25.27,25.27,0,0,0,3-2.83c2.67-3.46,5.22-7,7.81-10.54.68-.83,1.35-1.66,2-2.48h7.33V310.2l3.83-4.5,5.9,4.72c-.83,1.93-1.72,4-2.85,6.59l10.51,1.64-5.2-23.28,1.15-1.79c1,1.09,2.47,2.05,2.77,3.3,1.74,7.22,3.2,14.51,4.7,21.57L218,321.39l-.6,2.78-37.19-4.35c-.56,7.07-1.05,13.28-1.59,20.18l48.51,5.66c0-11.89.93-22.62-.26-33.1-1.32-11.66-4.57-23.09-7-34.63v-11.7L231,259.37l-24.56-26H245c4.5-20.4-22.38-46.22-43.69-42.85-15.25,2.41-27.94,8.28-35.26,22.75a.52.52,0,0,1-.69,0q-16-16.59-32.06-33.16c-3.88-4-8-7.75-11.74-11.87-1.55-1.73-2.33-4.15-3.47-6.26l16.38,4.53c4.07,7.51,6.88,15.51,15.88,18.85V169.61a45.48,45.48,0,0,0,5.88,0c15.26-2.15,30.76-3.33,45.68-6.93,11.28-2.71,22.48-7.61,27.94-19.59a.48.48,0,0,1,.54-.49c6.2,7.1,12.34,14.26,18.61,21.31q17.52,19.73,35.17,39.34a34.31,34.31,0,0,0,2.85,2.51c7.59-8,15-15.93,22.6-23.66q25.62-26,51.45-51.81c7-7,13.82-14.16,21-21,15.28-14.47,30.9-28.58,46.07-43.16C444.29,50.62,460,34.67,476.07,19.05c4.38-4.26,9.24-8,14-11.91a5.31,5.31,0,0,1,3.15-1.09c21-.06,41.93,0,63.72,0a52.25,52.25,0,0,1,1,6.8c.1,12.83-.84,25.74.37,38.45.93,9.85-5.66,14.38-10.79,19.93-8.26,8.94-17.29,17.16-25.92,25.75q-31.53,31.41-63,62.87c-8.54,8.5-17.29,16.79-25.82,25.29-1.23,1.22-1.8,3.1-2.67,4.68l-3.09.7c-1.53-.75-3.24-2.36-4.56-2.08-6.43,1.33-13.33,2.09-19,5.05-16.37,8.49-22.7,22.88-21.38,40.95q-13.37,13.8-26.74,27.61c-1.12,1.16-2.21,2.34-5.19,5.53l9,6.35.33.27v15.29c2.29-3.72,3.46-5.62,4.64-7.52l2,.25c-1.13,3.29-2.07,6.65-3.41,9.85-6.3,15-11.58,30.08-7.65,47.54l44.31,2.35V321.55l-34.27-2-.12-2.59L376,315.34c2.35-5.87,4.6-11.52,6.86-17.17l2.9,3.51c.1.46.21.93.31,1.39l-5.6,13.09,6.43.81c-.21-2-.36-3.36-.47-4.31l4.59-5.07q6.9,7,13.79,14.05,9.56,9.81,19.08,19.63L428,345.5c-2.48.14-5,.4-7.45.4q-44.24,0-88.46,0c-2.1,0-4.19.27-6.19.4v33.2Zm86.55-39-7-6.51v6.51Z"/><path class="cls-2" d="M358.86,414l-19.74-20.22V368c9.75,0,18.88,0,28,0l80.9-.32,2.2.62q1.32,1.79,2.62,3.58l-2.58,2.38v77.06h11.13V380c4.84,5.55,9.42,11.36,14.61,16.55,4.22,4.22,9.18,7.69,13.82,11.49.14,1,.29,2,.43,3.05v49.45H504.3V425.05c17.94,18.57,35.87,37.15,53.44,55.35v75.19c-2,.11-3.73.3-5.5.3-15.82,0-31.67.4-47.47-.19-4.53-.17-10.12-2-13.22-5.08-17.44-17.31-34.2-35.29-51.31-52.93-9-9.29-18.26-18.33-27.38-27.5-4-4.06-8-8.16-12.06-12.25-.08-.56-.17-1.13-.26-1.7.44-2.22,1.24-4.44,1.26-6.67.16-18.63.19-37.27.24-55.9,0-8-5.12-12.8-13.72-12.82-8.38,0-14.4,5.3-14.45,12.77q-.11,17.7-.23,35.39l-3.51-2.85-.54-2V373L359.29,372v42.1Zm86.88,43.66V388.46a41.42,41.42,0,0,0-3.36-4.22c-4.68-4.59-10.29-6.2-16.48-3.88-5.84,2.19-9.33,5.78-9.12,13.06.54,18.47.19,37,.26,55.46,0,2.91.35,5.83.54,8.79Zm.41-85.23h-71.7v9.71c16.93-9.45,22.72-4.3,32.21,4,.17,2.31.34,4.75.55,7.69l5.27-.32c.2-3.15.37-5.77.53-8.35,9.08-10.21,19.9-12,32.64-5.28C445.88,376.57,446,374.68,446.15,372.44Zm-33.63,31.14V398l-5.48.32c.09,2,.17,3.56.25,5.25Z"/><path class="cls-2" d="M196.28,425l-3.17.92c.2-11.95.54-23.9.55-35.84,0-7.35-8.26-14.15-16.5-14-8.62.16-14.92,5.92-14.93,13.84,0,19.28-.13,38.56.16,57.83,0,2.28,2.29,4.53,3.51,6.79-20.9,21.76-41.73,43.6-62.73,65.26Q87,536.44,70.32,552.5a12.5,12.5,0,0,1-7.66,3.31c-16,.27-32,.13-48,0A57.18,57.18,0,0,1,8,555c0-10.08,0-19.54,0-29,0-12-.27-24,.26-36a16.34,16.34,0,0,1,4.36-9.75C28.52,464,44.72,448,60.81,432v21.53H75.08V418.06A65.62,65.62,0,0,0,81.69,413c7.1-7,14-14.14,21-21.23V446.4h10.7V380l4.38-3.86-.18.73-.41-.42c2-.16,4.14.11,6-.54,11.6-4.19,19.73-2.32,28.64,7.15v6.52H158v-8.48c4.39-2.58,8.73-6.29,13.75-7.82,7.64-2.35,15,0,21.41,5.77V368.28c-2.21,0-3.85,0-5.5,0L127.83,368l.88-3,1.32-1.09c3.94.35,7.89,1,11.84,1,28.1.08,56.19,0,84.28.05,1.76,0,3.52.18,6,.31v19.81l-.66,4.88c-1.17.33-2.68.3-3.45,1-5.86,5.67-11.57,11.5-17.32,17.27l-.27.13V368.5H197.36a26.65,26.65,0,0,0-.37,2.67c-.32,14.93-.67,29.86-.85,44.79,0,2,.86,4.07,1.32,6.1Zm-49.83,28.62c.17-2.05.36-3.36.37-4.66.11-19.14-.22-38.3.51-57.42.3-7.76-3.06-11.19-9.52-13.47-9.93-3.51-20.71,3.68-20.71,14.08q0,27.7.18,55.43c0,1.93.27,3.87.44,6Zm6-59.27v6.53l5.2-.3v-6.23Z"/><path class="cls-2" d="M92.89,137.14Q71.24,114.55,49.59,92C36.86,78.72,24,65.62,11.49,52.16a14.61,14.61,0,0,1-3.38-8.81C7.74,31.22,8,19.08,8,6.62a37.06,37.06,0,0,1,4.27-.55c28.15-.22,56.3-.64,84.43-.26,3.12,0,6.48,4.35,9.21,7.18q22,22.68,43.78,45.65,20.55,21.54,40.95,43.21a23.57,23.57,0,0,1,2.38,3.67c-1.63-.07-3.26-.13-4.89-.23-11.56-.73-23.17-2.55-34.67-2-17.37.89-34.42,4.4-48.92,15.07-6,4.38-11.13,9.59-11.11,17.85Z"/><path class="cls-3" d="M93.39,136.25c0-8.26,5.16-13.47,11.11-17.85,14.5-10.67,31.55-14.18,48.92-15.07,11.5-.59,23.11,1.23,34.67,2,1.63.1,3.26.16,4.89.23L196.1,107l1,1-.1-.17a10.62,10.62,0,0,0,1.4,2.55q15.66,16.36,31.42,32.65c-5.46,12-16.66,16.88-27.94,19.59-14.92,3.6-30.42,4.78-45.68,6.93a45.48,45.48,0,0,1-5.88,0v15.66c-9-3.34-11.81-11.34-15.88-18.85l-16.38-4.53-5.61-4.19Z"/><path class="cls-4" d="M188.91,305.7l-3.83,4.5-7.33,6.54c-.68.82-1.35,1.65-2,2.48-2.48,2.22-4.9,4.53-7.47,6.66-3.69,3.06-7.49,6-11.24,9,1.24-6.11,2.49-12.22,4.09-20.13l-24-6.62,12.05-20.89c-3.35-1.06-3.35-1.06-16.63,19.52-4,1.38-8.93-3.37-13.93,2.17l37.8,8.12c-1.33,6.42-2.6,12.52-4,19.49l-45.51-9.33c-2.8-12.5,6-33,27.15-63L216,278l-17.56,15.58-1.15,1.79Z"/><path class="cls-4" d="M426.94,190.47l3.09-.7c25.56,8,37.12,31.44,27.13,54.61-2.09,4.85-5.36,6.88-10.39,7.87-12.61,2.47-12.24.79-13.11,12.79C413,273.51,385.17,258.32,383,234.3Z"/><path class="cls-4" d="M423.91,341.27q-9.54-9.81-19.08-19.63-6.87-7-13.79-14.05l-5-4.52c-.1-.46-.21-.93-.31-1.39l3.49-9.45h-4.85c-.56,1.76-1.05,3.3-1.53,4.83q-7.71-8.49-15.4-17l3-7.95h64.94c1.69,10.63,3.49,22,5.51,34.72L434,296.26l-1.73,1.06c4.93,14.43,9.86,28.86,15,43.95Z"/><path class="cls-3" d="M166.05,213.23c7.32-14.47,20-20.34,35.26-22.75,21.31-3.37,48.19,22.45,43.69,42.85H206.39l24.56,26-11.08,6.86-3.29-.1Q191.32,239.69,166.05,213.23Z"/><path class="cls-5" d="M448,367.72l-80.9.32c-9.12,0-18.25,0-28,0v25.75l-.39.11-12.8-14.36v-33.2c2-.13,4.09-.4,6.19-.4q44.22,0,88.46,0c2.48,0,5-.26,7.45-.4l1.58.29c1.09,1.84,1.91,3.92,3.31,5.49C437.85,356.85,443,362.25,448,367.72Z"/><path class="cls-6" d="M130,363.92,128.71,365H74.56v51.06q-6.75,7-13.49,14v-87.9h90.61l.27,1.06Z"/><path class="cls-5" d="M130,363.92,152,343.21l.93-1.25,1-.21c20.55,2.35,41.07,5,61.67,6.86,4.92.45,11.86,3.72,14.39-5.63h16.34c0,9.63,0,18.38,0,27.13l-.39,3.86c-1.27.9-2.61,1.71-3.81,2.7-3.33,2.77-6.6,5.61-9.89,8.42V365.28c-2.51-.13-4.27-.31-6-.31-28.09,0-56.18,0-84.28-.05C137.92,364.91,134,364.27,130,363.92Z"/><path class="cls-6" d="M448,367.72c-5-5.47-10.17-10.87-15.1-16.44-1.4-1.57-2.22-3.65-3.31-5.49h72.81c.63,2.58,1.68,4.93,1.68,7.27,0,23.62-.08,47.23-.16,70.84l-13.69-12.82c-.14-1-.29-2-.43-3.05V368.34h-39.6Z"/><path class="cls-3" d="M165.9,454.55c-1.22-2.26-3.47-4.51-3.51-6.79-.29-19.27-.2-38.55-.16-57.83,0-7.92,6.31-13.68,14.93-13.84,8.24-.14,16.5,6.66,16.5,14,0,11.94-.35,23.89-.55,35.84-.13,1.56-.25,3.13-.38,4.7-.92,0-2.27-.49-2.71-.05-7.68,7.74-15.25,15.59-22.85,23.41Z"/><path class="cls-3" d="M198.42,293.58,216,278l3.89-.07c2.41,11.54,5.66,23,7,34.63,1.19,10.48.26,21.21.26,33.1L178.6,340c.54-6.9,1-13.11,1.59-20.18l37.19,4.35.6-2.78-12.09-2.94c-1.5-7.06-3-14.35-4.7-21.57C200.89,295.63,199.37,294.67,198.42,293.58Z"/><path class="cls-3" d="M373.64,429q.12-17.7.23-35.39c.05-7.47,6.07-12.79,14.45-12.77,8.6,0,13.75,4.81,13.72,12.82-.05,18.63-.08,37.27-.24,55.9,0,2.23-.82,4.45-1.26,6.67-7.13-7.21-14.2-14.48-21.41-21.61a36,36,0,0,0-5.08-3.55C373.91,430.39,373.78,429.7,373.64,429Z"/><path class="cls-4" d="M437.86,258l19.44-3.3c4.56,28,9.08,55.71,13.66,83.73l-19.4,3.12C447,313.57,442.45,286,437.86,258Z"/><path class="cls-3" d="M367.49,280.07q7.69,8.51,15.4,17c0,.37,0,.74,0,1.11-2.26,5.65-4.51,11.3-6.86,17.17L364.88,317l.12,2.59,34.27,2v20.36L355,339.56C351,322.1,356.31,307,362.61,292c1.34-3.2,2.28-6.56,3.41-9.85Z"/><path class="cls-4" d="M166.05,213.23q25.27,26.45,50.53,52.9c-10.8,5.71-31.05,1.69-41.48-8.12-13.54-12.74-16.29-27.76-9.74-44.83A.52.52,0,0,0,166.05,213.23Z"/><path class="cls-6" d="M232.18,385.09c3.29-2.81,6.56-5.65,9.89-8.42,1.2-1,2.54-1.8,3.81-2.7v82.37H231.52V390Z"/><path class="cls-6" d="M325.93,379.54l12.8,14.36v63.91H324.9V379.86Z"/><path class="cls-3" d="M426.94,190.47,383,234.3l-1.06.09c-1.32-18.07,5-32.46,21.38-40.95,5.7-3,12.6-3.72,19-5.05C423.7,188.11,425.41,189.72,426.94,190.47Z"/><path class="cls-5" d="M490.25,411.08l13.69,12.82.36,1.14v35.49H490.25Z"/><path class="cls-6" d="M104,262.61h19.33c-1.51,6.35-2,12.31-4.35,17.46-4.59,10.19-10.17,19.92-15,29.13Z"/><path class="cls-6" d="M196.28,425l1.17-3,13-13.65.27-.13v37.48H197.8C197.29,438.73,196.78,431.87,196.28,425Z"/><path class="cls-5" d="M61.07,430.06q6.74-7,13.49-14l.52,2v35.43H60.81V432C60.89,431.33,61,430.69,61.07,430.06Z"/><path class="cls-4" d="M374.05,431.08a36,36,0,0,1,5.08,3.55c7.21,7.13,14.28,14.4,21.41,21.61.09.57.18,1.14.26,1.7H374.05Z"/><path class="cls-4" d="M229.85,143.06q-15.72-16.32-31.42-32.65a10.62,10.62,0,0,1-1.4-2.55c13.31,4.51,27.36,8.22,33.38,22.93,1.37,3.36.06,7.82,0,11.77A.49.49,0,0,0,229.85,143.06Z"/><path class="cls-4" d="M167.17,454c7.6-7.82,15.17-15.67,22.85-23.41.44-.44,1.79,0,2.71.05V454Z"/><path class="cls-6" d="M369.59,424.16l.54,2q-.22,10.68-.45,21.37c0,.14-.15.28-.4.71H358.86V414l.43,0Z"/><path class="cls-4" d="M93.39,136.25l19.09,21.45c-7.57-.14-17.56-10.63-19.59-20.56Z"/><path class="cls-6" d="M126.83,337.89H104v-8.14l23.3,6.44Z"/><path class="cls-3" d="M157,334.86c3.75-3,7.55-5.92,11.24-9,2.57-2.13,5-4.44,7.47-6.66-2.59,3.52-5.14,7.08-7.81,10.54a25.27,25.27,0,0,1-3,2.83l2.07,5.33H156.27C156.52,336.9,156.76,335.88,157,334.86Z"/><path class="cls-6" d="M359.07,273.88v-6.43h10.6l-6,10.43-4.31-3.73Z"/><path class="cls-5" d="M359.4,274.15l4.31,3.73.33,4c-1.18,1.9-2.35,3.8-4.64,7.52Z"/><path class="cls-2" d="M152.88,342l-.93,1.25-.27-1.06Z"/><path class="cls-4" d="M197.13,108l-1-1Z"/><path class="cls-3" d="M188.91,305.7l8.36-10.33,5.2,23.28L192,317c1.13-2.61,2-4.66,2.85-6.59Z"/><path class="cls-3" d="M386.09,303.07l5,4.52-4.59,5.07c.11.95.26,2.34.47,4.31l-6.43-.81Z"/><path class="cls-1" d="M382.88,298.17c0-.37,0-.74,0-1.11.48-1.53,1-3.07,1.53-4.83h4.85l-3.49,9.45Z"/><path class="cls-5" d="M177.75,316.74l7.33-6.54v6.54Z"/><path class="cls-3" d="M411.45,340.9h-7v-6.51Z"/><path class="cls-3" d="M445.74,457.67H417.58c-.19-3-.53-5.88-.54-8.79-.07-18.49.28-37-.26-55.46-.21-7.28,3.28-10.87,9.12-13.06,6.19-2.32,11.8-.71,16.48,3.88a41.42,41.42,0,0,1,3.36,4.22Z"/><path class="cls-5" d="M461.39,380v71.37H450.26V374.3c.68-.63,1.63-1.51,2.59-2.38l1.29.19,6.87,7.57A.5.5,0,0,1,461.39,380Z"/><path class="cls-1" d="M454.14,372.11l-1.29-.19-2.63-3.58h39.6V408c-4.64-3.8-9.6-7.27-13.82-11.49-5.19-5.19-9.77-11-14.61-16.55a.5.5,0,0,0-.38-.31v-6.79Z"/><path class="cls-3" d="M446.15,372.44c-.15,2.24-.27,4.13-.5,7.44-12.74-6.7-23.56-4.93-32.64,5.28-.16,2.58-.33,5.2-.53,8.35l-5.27.32c-.21-2.94-.38-5.38-.55-7.69-9.49-8.29-15.28-13.44-32.21-4v-9.71Z"/><path class="cls-5" d="M369.59,424.16l-10.3-10.11V372l10.3,1.07Z"/><path class="cls-5" d="M412.52,403.58h-5.23c-.08-1.69-.16-3.24-.25-5.25l5.48-.32Z"/><path class="cls-3" d="M146.45,453.64H117.72c-.17-2.17-.43-4.11-.44-6q-.14-27.72-.18-55.43c0-10.4,10.78-17.59,20.71-14.08,6.46,2.28,9.82,5.71,9.52,13.47-.73,19.12-.4,38.28-.51,57.42C146.81,450.28,146.62,451.59,146.45,453.64Z"/><path class="cls-1" d="M75.08,418.06l-.52-2V365h54.15c-.29,1-.59,2-.88,3l-2.54.68h-7.8c.13,3,.23,5.26.33,7.5L113.44,380l-.32-.15v-11.2h-10v20.09l-.36,3c-7,7.09-13.95,14.24-21,21.23A65.62,65.62,0,0,1,75.08,418.06Z"/><path class="cls-5" d="M210.48,408.41l-13,13.65c-.45-2-1.33-4.07-1.31-6.1.18-14.93.53-29.86.85-44.79a26.65,26.65,0,0,1,.37-2.67h13.12Z"/><path class="cls-5" d="M102.74,391.77l.36-3,10-8.89.32.15V446.4h-10.7Z"/><path class="cls-3" d="M125.29,368.65l2.54-.68,59.86.31c1.65,0,3.29,0,5.5,0v10.79c-6.41-5.79-13.77-8.12-21.41-5.77-5,1.53-9.36,5.24-13.75,7.82v8.48h-6.21v-6.52c-8.91-9.47-17-11.34-28.64-7.15-1.81.65-4,.38-5.94.61C119.93,374,122.61,371.3,125.29,368.65Z"/><path class="cls-4" d="M125.29,368.65c-2.68,2.65-5.36,5.31-8.05,7.89a2,2,0,0,1,.4.35l.18-.73c-.1-2.25-.2-4.5-.33-7.51Z"/><path class="cls-5" d="M152.45,394.37h5.2v6.23l-5.2.3Z"/><path class="cls-6" d="M454.14,372.11l6.87.78v6.79Z"/><path class="cls-6" d="M113.12,379.87l-10,8.89V368.67h10Z"/></g></g></svg>